<svg xmlns="http://www.w3.org/2000/svg" width="460" height="240" viewBox="0 0 460 240" role="img">
<rect width="460" height="240" rx="10" fill="var(--surface-sunken)"/>
<text x="16" y="28" fill="var(--text-muted)" font-family="var(--font-mono)" font-size="12" text-anchor="start">f = (a·b + c)²</text>
<text x="16" y="94" fill="var(--text-muted)" font-family="var(--font-mono)" font-size="11" text-anchor="start">a = 1</text>
<text x="16" y="116" fill="var(--text-muted)" font-family="var(--font-mono)" font-size="11" text-anchor="start">b = 2</text>
<line x1="54" y1="91" x2="93.07" y2="97.08" stroke="var(--border-default)" stroke-width="2"/>
<path d="M99 98 L93.12 94.20 L92.25 99.84 Z" fill="var(--border-default)"/>
<line x1="54" y1="113" x2="93.01" y2="110.40" stroke="var(--border-default)" stroke-width="2"/>
<path d="M99 110 L92.43 107.58 L92.81 113.27 Z" fill="var(--border-default)"/>
<text x="246" y="62" fill="var(--text-muted)" font-family="var(--font-mono)" font-size="11" text-anchor="middle">c = 0.5</text>
<line x1="246" y1="66" x2="246.00" y2="76.00" stroke="var(--border-default)" stroke-width="2"/>
<path d="M246 82 L248.85 75.61 L243.15 75.61 Z" fill="var(--border-default)"/>
<rect x="101" y="84" width="46" height="40" rx="6" fill="none" stroke="var(--border-default)" stroke-width="2"/>
<text x="124" y="108" fill="var(--text-strong)" font-family="var(--font-mono)" font-size="11" text-anchor="middle">×</text>
<rect x="223" y="84" width="46" height="40" rx="6" fill="none" stroke="var(--border-default)" stroke-width="2"/>
<text x="246" y="108" fill="var(--text-strong)" font-family="var(--font-mono)" font-size="11" text-anchor="middle">+</text>
<rect x="345" y="84" width="46" height="40" rx="6" fill="none" stroke="var(--border-default)" stroke-width="2"/>
<text x="368" y="108" fill="var(--text-strong)" font-family="var(--font-mono)" font-size="11" text-anchor="middle">(·)²</text>
<line x1="153" y1="104" x2="211.00" y2="104.00" stroke="var(--border-default)" stroke-width="2"/>
<path d="M217 104 L210.61 101.15 L210.61 106.85 Z" fill="var(--border-default)"/>
<line x1="275" y1="104" x2="333.00" y2="104.00" stroke="var(--border-default)" stroke-width="2"/>
<path d="M339 104 L332.61 101.15 L332.61 106.85 Z" fill="var(--border-default)"/>
<line x1="397" y1="104" x2="432.00" y2="104.00" stroke="var(--border-default)" stroke-width="2"/>
<path d="M438 104 L431.61 101.15 L431.61 106.85 Z" fill="var(--border-default)"/>
<text x="185" y="90" fill="var(--text-muted)" font-family="var(--font-mono)" font-size="11" text-anchor="middle">v1 = 2</text>
<text x="307" y="90" fill="var(--text-muted)" font-family="var(--font-mono)" font-size="11" text-anchor="middle">v2 = 2.5</text>
<text x="415.5" y="90" fill="var(--text-muted)" font-family="var(--font-mono)" font-size="11" text-anchor="middle">v3 = 6.25</text>
<line x1="124" y1="124" x2="124" y2="160" stroke="var(--border-subtle)" stroke-width="1.5" stroke-dasharray="4 3"/>
<line x1="246" y1="124" x2="246" y2="160" stroke="var(--border-subtle)" stroke-width="1.5" stroke-dasharray="4 3"/>
<line x1="368" y1="124" x2="368" y2="160" stroke="var(--border-subtle)" stroke-width="1.5" stroke-dasharray="4 3"/>
<circle cx="368" cy="160" r="3" fill="var(--figure-accent)"/>
<line x1="368" y1="160" x2="254.00" y2="160.00" stroke="var(--figure-accent)" stroke-width="2"/>
<path d="M248 160 L254.39 162.85 L254.39 157.15 Z" fill="var(--figure-accent)"/>
<line x1="246" y1="160" x2="132.00" y2="160.00" stroke="var(--figure-accent)" stroke-width="2"/>
<path d="M126 160 L132.39 162.85 L132.39 157.15 Z" fill="var(--figure-accent)"/>
<line x1="124" y1="160" x2="70.00" y2="160.00" stroke="var(--figure-accent)" stroke-width="2"/>
<path d="M64 160 L70.39 162.85 L70.39 157.15 Z" fill="var(--figure-accent)"/>
<text x="185" y="146" fill="var(--figure-accent)" font-family="var(--font-mono)" font-size="11" text-anchor="middle">5</text>
<text x="307" y="146" fill="var(--figure-accent)" font-family="var(--font-mono)" font-size="11" text-anchor="middle">5</text>
<text x="415.5" y="146" fill="var(--figure-accent)" font-family="var(--font-mono)" font-size="11" text-anchor="middle">1</text>
<circle cx="20" cy="190" r="2.5" fill="var(--text-muted)"/>
<text x="30" y="194" fill="var(--text-muted)" font-family="var(--font-mono)" font-size="11" text-anchor="start" letter-spacing="1.32" opacity="0.8">FORWARD VALUE</text>
<circle cx="20" cy="210" r="2.5" fill="var(--figure-accent)"/>
<text x="30" y="214" fill="var(--text-muted)" font-family="var(--font-mono)" font-size="11" text-anchor="start" letter-spacing="1.32" opacity="0.8">ADJOINT</text>
</svg>
