<svg xmlns="http://www.w3.org/2000/svg" fill="none" width="460" height="300" viewBox="0 0 460 300">
<rect width="460" height="300" rx="10" fill="var(--surface-sunken)"/>
<g transform="translate(20 0)">
  
  <defs>
    <marker id="optGdDot" markerWidth="7" markerHeight="7" refX="3.5" refY="3.5" orient="auto"><circle cx="3.5" cy="3.5" r="3" fill="var(--figure-alert)"/></marker>
  </defs>
  <g stroke="var(--border-subtle)" stroke-width="1.5">
    <ellipse cx="230" cy="150" rx="200" ry="118"/>
    <ellipse cx="230" cy="150" rx="155" ry="92"/>
    <ellipse cx="230" cy="150" rx="110" ry="66"/>
    <ellipse cx="230" cy="150" rx="65" ry="40"/>
    <ellipse cx="230" cy="150" rx="25" ry="16"/>
  </g>
  <polyline points="380,60 330,112 300,86 272,124 256,102 242,136 236,142 230,150"
    stroke="var(--figure-alert)" stroke-width="2" fill="none" stroke-linejoin="round"/>
  <g fill="var(--figure-alert)">
    <circle cx="380" cy="60" r="3.5"/>
    <circle cx="330" cy="112" r="3.5"/>
    <circle cx="300" cy="86" r="3.5"/>
    <circle cx="272" cy="124" r="3.5"/>
    <circle cx="256" cy="102" r="3.5"/>
    <circle cx="242" cy="136" r="3.5"/>
    <circle cx="236" cy="142" r="3.5"/>
  </g>
  <g stroke="var(--figure-flow)" stroke-width="2">
    <line x1="223" y1="143" x2="237" y2="157"/>
    <line x1="237" y1="143" x2="223" y2="157"/>
  </g>
  <text x="210" y="26" text-anchor="middle" fill="var(--text-muted)" font-family="var(--font-mono)" font-size="11">gradient descent steps downhill, opposite the gradient</text>
  <text x="360" y="50" fill="var(--text-muted)" font-family="var(--font-mono)" font-size="10">start</text>
  <text x="244" y="168" fill="var(--figure-flow)" font-family="var(--font-mono)" font-size="10">minimum</text>
  <text x="330" y="278" fill="var(--text-muted)" font-family="var(--font-mono)" font-size="10">contours of f</text>
</g>
</svg>